# xmcd
# Track frame offsets:
# 150
# 17180
# 27162
# 42107
# 53955
# 68212
# 83560
# 99385
# 119207
# 132877
# 147070
# 161897
#
# Disc length: 2355 seconds
# Revision: 0
# Processed by: cddbd v1.5PL3 Copyright (c) Steve Scherf et al.
# Submitted via: VisiTrax 2.9.5.180 - For more info visit www.synapsa.com
#
DISCID=a209310c
DTITLE=Sylvia Winters - This ole feeling
DYEAR=1999
DGENRE=
TTITLE0=This ole feeling
TTITLE1=Taming my mind
TTITLE2=Falling out of love with me
TTITLE3=If my eyes could talk
TTITLE4=I wished that I loved you
TTITLE5=Make me your believer
TTITLE6=The crush
TTITLE7=Reconsider me
TTITLE8=Ain't it funny
TTITLE9=Lonely teardrops
TTITLE10=Cry baby
TTITLE11=Deep water
EXTD=
EXTT0=
EXTT1=
EXTT2=
EXTT3=
EXTT4=
EXTT5=
EXTT6=
EXTT7=
EXTT8=
EXTT9=
EXTT10=
EXTT11=
PLAYORDER=
